<svg width="124" height="90" viewBox="0 0 124 90" fill="none" xmlns="http://www.w3.org/2000/svg">
<path d="M59.0739 44H44V1H59.2512C72.1379 1 80 9.07735 80 22.4406C80 35.9227 72.1379 44 59.0739 44ZM52.867 36.3384H58.7192C66.8768 36.3384 71.133 32.0622 71.133 22.4406C71.133 12.8785 66.8768 8.6616 58.7783 8.6616H52.867V36.3384Z" fill="white"/>
<path d="M6.40664 89H1.60195V74.8594H6.48476C10.7035 74.8594 13.2621 77.5156 13.2621 81.9102C13.2621 86.3242 10.7035 89 6.40664 89ZM4.14101 86.793H6.26992C9.21914 86.793 10.723 85.1719 10.723 81.9102C10.723 78.668 9.21914 77.0664 6.34805 77.0664H4.14101V86.793ZM16.1082 89V74.8594H25.3074V76.9883H18.6473V80.8555H24.8191V82.9844H18.6473V86.8516H25.3465V89H16.1082ZM28.3488 89V74.8594H33.6613C36.9035 74.8594 38.6418 76.832 38.6418 79.5469C38.6418 82.2617 36.884 84.2148 33.6223 84.2148H30.8879V89H28.3488ZM30.8879 82.125H33.2707C35.1848 82.125 36.0441 81.0508 36.0441 79.5469C36.0441 78.0234 35.1848 76.9883 33.2707 76.9883H30.8879V82.125ZM41.2926 89V74.8594H46.6051C49.8473 74.8594 51.5855 76.6758 51.5855 79.3711C51.5855 81.2949 50.7066 82.7207 49.0465 83.3945L52.0934 89H49.2613L46.4879 83.8242H43.8316V89H41.2926ZM43.8316 81.6953H46.2145C48.1285 81.6953 48.9879 80.875 48.9879 79.3711C48.9879 77.8672 48.1285 76.9883 46.2145 76.9883H43.8316V81.6953ZM66.9902 81.9297C66.9902 86.5 64.2168 89.1953 60.5059 89.1953C56.7949 89.1953 54.0215 86.4805 54.0215 81.9297C54.0215 77.3594 56.7949 74.6641 60.5059 74.6641C64.2168 74.6641 66.9902 77.3594 66.9902 81.9297ZM64.4316 81.9297C64.4316 78.707 62.8105 76.9492 60.5059 76.9492C58.2012 76.9492 56.5801 78.707 56.5801 81.9297C56.5801 85.1523 58.2012 86.9102 60.5059 86.9102C62.8105 86.9102 64.4316 85.1523 64.4316 81.9297ZM69.8559 74.8594H72.9809L77.1801 85.1328H77.3559L81.5551 74.8594H84.6801V89H82.2387V79.2734H82.102L78.1762 88.9609H76.3598L72.434 79.2344H72.3168V89H69.8559V74.8594ZM87.8973 89V74.8594H97.0965V76.9883H90.4363V80.8555H96.6082V82.9844H90.4363V86.8516H97.1355V89H87.8973ZM100.138 89V74.8594H109.337V76.9883H102.677V80.8555H108.849V82.9844H102.677V86.8516H109.376V89H100.138ZM111.754 76.9883V74.8594H123.023V76.9883H118.668V89H116.129V76.9883H111.754Z" fill="white"/>
</svg>
